<svg xmlns="http://www.w3.org/2000/svg" viewBox="0 0 126 61" width="126" height="61">
	<defs>
		<clipPath clipPathUnits="userSpaceOnUse" id="cp1">
			<path d="M0 0L126 0L126 61L0 61Z" />
		</clipPath>
	</defs>
	<style>
		tspan { white-space:pre }
		.shp0 { mix-blend-mode: lighten;fill: #f4f4f9 } 
	</style>
	<g id="Page 1" clip-path="url(#cp1)">
		<path id="Path 1" class="shp0" d="M0 36.72C0 23.31 10.87 12.44 24.28 12.44C31.82 12.44 38.56 15.88 43.01 21.27C46.95 9.03 58.42 0.18 71.97 0.18C82.15 0.18 91.16 5.19 96.68 12.87C98.16 12.59 99.68 12.44 101.24 12.44C114.65 12.44 125.52 23.31 125.52 36.72C125.52 50.13 114.65 61 101.24 61L21.5 61L21.5 60.84C9.4 59.46 0 49.19 0 36.72Z" />
	</g>
</svg>