<svg height="338" viewBox="0 0 853 338" width="853" xmlns="http://www.w3.org/2000/svg" xmlns:xlink="http://www.w3.org/1999/xlink"><clipPath id="a"><path d="m1 1h852v336h-852z"/></clipPath><g clip-path="url(#a)"><path d="m152.01 283.22-1.24 1.04-.89 1.8-4.15 45.58.15 2.44.08.94.27.73.5.39.91.32 2.15.32 102.64-.24 1.9-.19.89-.6.6-1.29.09-1.76-.74-12.06-.24-1.09-.25-.88-.39-.83-.44-.68-.52-.41-.68-.33-1.66-.67-95.22-32.58-1.01-.29-1.26-.12z" fill="#1a545c"/><path d="m152.01 283.22-1.24 1.04-.89 1.8-4.15 45.58.15 2.44.08.94.27.73.5.39.91.32 2.15.32 102.64-.24 1.9-.19.89-.6.59-1.29.1-1.76-.74-12.06-.24-1.09-.25-.88-.39-.83-.44-.68-.52-.41-.68-.33-1.66-.67-95.22-32.58-1.01-.29-1.26-.12z" fill="none" stroke="#1a545c" stroke-width=".432"/><path d="m247.92 236.53-1.45-.8-2.03-.79-84.52-29.85-1.28-.5-.63-.31-.49-.2-.39-.02-.34.06-.18 1.47-3.55 40.47.11 1.26.33.99.75.72 1.11.49 57.53 19.73 1.9.66 1.12 1.07.28 1.24.1.88.1.89.13 9.67v2.58l.6 2.27 1.39 1.04 2.12 1.12 29.82 9.74 1.15.31.41.1.46.05.26-.02.28-.16.17-.37.08-.35.01-.56-.12-1.5-4.57-58.7-.13-1.43z" fill="#4fccc4" stroke="#4fccc4" stroke-width=".432"/><path d="m161.64 146.74-.12.24-.11.3-.07.56-1.83 24.46-.01.28.01.16.04.12.1.07.15.07.17.07 48.24 17.17.94.36.58.26.39.29.24.79.12.87.44 11.57.08 1.08.14.55.16.42.23.3.33.19 1.05.44 32.17 11.74 1.16.25.63-.01.17-.03.05-.15.04-.25-.01-.36-.1-1.15-.13-1.63-5.36-67.14-.17-.93-.34-.65-1.04-.33-.98-.13-76.29-.06-.36.01-.23.05-.27.05z" fill="#ff6b6b" stroke="#ff6b6b" stroke-width=".432"/><path d="m154.46 117.47h91.67c1.99 0 3.62 1.11 3.62 2.46v6.84c0 1.36-1.63 2.46-3.62 2.46h-91.67c-2 0-3.63-1.1-3.63-2.46v-6.84c0-1.35 1.63-2.46 3.63-2.46z" fill="#1a545c" stroke="#1a545c" stroke-width=".432"/><path d="m249.72 135.01h-98.91v-10.84h98.91z" fill="#1a545c" stroke="#1a545c" stroke-width=".432"/><path d="m231.34 118.24-.82-41.81-.38-13.03-49.8.13-7.64-.17-3.19 55.32" fill="none" stroke="#1a545c" stroke-width="8"/><path d="m291.56 135.69h28.47v69.42h44.41v22.68h-72.88m80.02-45.99c0-15.04 4.21-26.74 12.57-35.11 8.39-8.38 20.05-12.56 35-12.56 15.33 0 27.14 4.11 35.44 12.35 8.28 8.21 12.44 19.75 12.44 34.57 0 10.76-1.82 19.6-5.45 26.48-3.62 6.88-8.85 12.24-15.69 16.08-6.86 3.84-15.38 5.75-25.61 5.75-10.37 0-18.97-1.65-25.79-4.95-6.8-3.33-12.31-8.56-16.56-15.72-4.22-7.17-6.35-16.13-6.35-26.89zm28.48.12c0 9.31 1.72 15.98 5.17 20.05 3.45 4.06 8.17 6.09 14.11 6.09 6.11 0 10.85-1.99 14.2-5.96 3.34-3.98 5.04-11.13 5.04-21.42 0-8.68-1.76-15.01-5.26-19.02-3.49-3.99-8.23-5.98-14.24-5.98-5.72 0-10.33 2.01-13.81 6.09-3.47 4.05-5.21 10.78-5.21 20.15zm69.29-46.23h31.33l16.34 28.33 15.82-28.33h31.05l-28.65 44.61 31.36 47.49h-31.98l-18.16-29.59-18.23 29.59h-31.78l31.78-47.99m77.41-44.11h47.31c10.29 0 18.01 2.45 23.14 7.36 5.12 4.89 7.7 11.88 7.7 20.91 0 9.3-2.79 16.57-8.39 21.8-5.6 5.24-14.13 7.85-25.6 7.85h-15.57v34.18h-28.59zm28.59 39.27h6.97c5.49 0 9.33-.95 11.56-2.86 2.21-1.9 3.32-4.35 3.32-7.31 0-2.89-.96-5.36-2.89-7.35-1.91-2.02-5.54-3.03-10.85-3.03h-8.11m64.39-18.72h76.26v19.67h-47.73v14.64h44.28v18.79h-44.28v18.14h49.12v20.86h-77.65m93.35 0v-92.1h47.43c8.8 0 15.53.75 20.16 2.28 4.65 1.5 8.41 4.28 11.26 8.38 2.85 4.07 4.27 9.05 4.27 14.9 0 5.13-1.1 9.52-3.26 13.23-2.19 3.71-5.19 6.72-8.99 9.03-2.44 1.46-5.77 2.68-9.99 3.63 3.39 1.13 5.85 2.27 7.42 3.41 1.03.75 2.55 2.36 4.55 4.82 1.99 2.49 3.32 4.38 3.98 5.73l13.77 26.69h-32.16l-15.21-28.15c-1.93-3.63-3.64-6.01-5.17-7.1-2.03-1.41-4.37-2.12-6.97-2.12h-2.5v37.37zm28.59-54.79h12c1.29 0 3.8-.4 7.53-1.24 1.89-.38 3.43-1.35 4.63-2.89 1.18-1.55 1.78-3.33 1.78-5.34 0-2.98-.94-5.26-2.83-6.84-1.89-1.61-5.42-2.41-10.61-2.41h-12.5" fill="#4fccc4" fill-rule="evenodd"/><path d="m307.93 269.72v-6.06h13.92v12.43c-2.66 1.82-5.01 3.06-7.07 3.71-2.05.66-4.48.99-7.29.99-3.46 0-6.28-.59-8.46-1.78-2.19-1.17-3.88-2.93-5.07-5.27-1.2-2.33-1.81-5.01-1.81-8.03 0-3.18.66-5.95 1.97-8.31 1.32-2.35 3.24-4.14 5.77-5.36 1.98-.94 4.64-1.41 7.98-1.41 3.22 0 5.63.29 7.23.88 1.6.58 2.92 1.48 3.98 2.71 1.06 1.22 1.85 2.78 2.38 4.67l-8.69 1.54c-.36-1.1-.97-1.94-1.83-2.52-.85-.59-1.94-.88-3.27-.88-1.97 0-3.55.69-4.72 2.06-1.18 1.38-1.77 3.55-1.77 6.52 0 3.16.6 5.41 1.79 6.76 1.18 1.35 2.84 2.03 4.96 2.03 1.01 0 1.97-.15 2.88-.44.92-.29 1.97-.79 3.15-1.49v-2.75m13.23-18.59h24.15v6.22h-15.12v4.64h14.03v5.95h-14.03v5.74h15.56v6.61h-24.59m27.39-29.16h27.4v7.2h-9.2v21.96h-9.01v-21.96h-9.19m45.06-7.2h9.02v21.98h14.06v7.18h-23.08m25.34-14.56c0-4.76 1.33-8.47 3.98-11.12 2.66-2.66 6.35-3.98 11.08-3.98 4.86 0 8.6 1.3 11.23 3.91 2.62 2.6 3.94 6.26 3.94 10.95 0 3.41-.58 6.2-1.73 8.38-1.14 2.18-2.8 3.88-4.97 5.1-2.17 1.21-4.87 1.82-8.11 1.82-3.28 0-6.01-.53-8.17-1.57-2.15-1.05-3.89-2.71-5.24-4.98-1.34-2.27-2.01-5.11-2.01-8.51zm9.02.04c0 2.94.54 5.06 1.64 6.35 1.09 1.28 2.58 1.92 4.47 1.92 1.93 0 3.43-.63 4.49-1.88 1.06-1.27 1.59-3.53 1.59-6.79 0-2.75-.55-4.75-1.66-6.02-1.1-1.26-2.6-1.89-4.51-1.89-1.81 0-3.27.63-4.37 1.92s-1.65 3.42-1.65 6.39zm45.48 2.6 7.89 2.39c-.53 2.22-1.36 4.07-2.5 5.55-1.14 1.49-2.56 2.61-4.25 3.36-1.69.76-3.85 1.14-6.45 1.14-3.17 0-5.77-.46-7.77-1.38-2.01-.93-3.75-2.55-5.21-4.87-1.45-2.32-2.19-5.29-2.19-8.91 0-4.83 1.29-8.54 3.85-11.13 2.57-2.59 6.2-3.89 10.9-3.89 3.67 0 6.55.74 8.66 2.23 2.11 1.48 3.67 3.77 4.69 6.84l-7.96 1.77c-.28-.89-.57-1.54-.88-1.95-.5-.69-1.12-1.22-1.85-1.59s-1.55-.56-2.45-.56c-2.03 0-3.6.82-4.69 2.47-.82 1.22-1.24 3.14-1.24 5.75 0 3.24.5 5.45 1.48 6.65.98 1.21 2.36 1.8 4.13 1.8 1.73 0 3.03-.48 3.91-1.45.89-.96 1.53-2.37 1.93-4.22zm30.22 7.11h-10.27l-1.41 4.81h-9.21l10.96-29.16h9.82l10.97 29.16h-9.43zm-1.89-6.31-3.23-10.49-3.2 10.49m22.06-18.04h9.02v21.98h14.06v7.18h-23.08m40.75-29.16h24.15v6.22h-15.12v4.64h14.02v5.95h-14.02v5.74h15.56v6.61h-24.59m27.43-29.16h9.92l5.18 8.97 5.01-8.97h9.83l-9.07 14.12 9.93 15.04h-10.13l-5.75-9.37-5.77 9.37h-10.06l10.06-15.2m24.52-13.96h14.97c3.27 0 5.71.77 7.33 2.33 1.63 1.54 2.44 3.76 2.44 6.62 0 2.94-.88 5.25-2.65 6.9-1.78 1.66-4.48 2.49-8.11 2.49h-4.93v10.82h-9.05zm9.05 12.43h2.2c1.74 0 2.96-.3 3.66-.9.7-.61 1.06-1.38 1.06-2.32 0-.92-.31-1.7-.92-2.33-.6-.64-1.75-.96-3.44-.96h-2.56m20.39-5.92h24.14v6.22h-15.11v4.64h14.02v5.95h-14.02v5.74h15.56v6.61h-24.59m29.56 0v-29.17h15.02c2.78 0 4.92.24 6.38.72 1.47.48 2.66 1.36 3.57 2.66.9 1.29 1.35 2.87 1.35 4.72 0 1.62-.35 3.01-1.03 4.19-.7 1.17-1.65 2.12-2.85 2.86-.77.46-1.83.85-3.16 1.15 1.07.36 1.85.71 2.34 1.08.33.23.81.74 1.44 1.52.64.79 1.06 1.39 1.27 1.82l4.36 8.45h-10.19l-4.81-8.91c-.61-1.15-1.16-1.91-1.64-2.25-.64-.45-1.38-.68-2.21-.68h-.79v11.84zm9.05-17.35h3.8c.41 0 1.2-.13 2.38-.39.6-.13 1.09-.43 1.47-.92s.57-1.05.57-1.69c0-.94-.3-1.66-.9-2.17s-1.72-.76-3.36-.76h-3.96m22.88-5.88h9.03v29.16h-9.03m15.48-29.16h24.15v6.22h-15.12v4.64h14.02v5.95h-14.02v5.74h15.56v6.61h-24.59m29.5-29.16h8.42l10.98 16.13v-16.13h8.49v29.16h-8.49l-10.93-16.01v16.01h-8.47m53.3-11.92 7.89 2.39c-.52 2.22-1.36 4.07-2.5 5.55-1.14 1.49-2.56 2.61-4.25 3.36-1.69.76-3.85 1.14-6.45 1.14-3.17 0-5.77-.46-7.77-1.38-2.01-.93-3.75-2.55-5.21-4.87-1.45-2.32-2.19-5.29-2.19-8.91 0-4.83 1.29-8.54 3.85-11.13 2.57-2.59 6.2-3.89 10.9-3.89 3.67 0 6.56.74 8.66 2.23 2.11 1.48 3.67 3.77 4.69 6.84l-7.96 1.77c-.28-.89-.57-1.54-.88-1.95-.5-.69-1.12-1.22-1.84-1.59-.74-.37-1.55-.56-2.46-.56-2.03 0-3.6.82-4.69 2.47-.82 1.22-1.24 3.14-1.24 5.75 0 3.24.5 5.45 1.48 6.65.98 1.21 2.36 1.8 4.13 1.8 1.73 0 3.03-.48 3.92-1.45.88-.96 1.52-2.37 1.92-4.22zm12.26-17.24h24.14v6.22h-15.11v4.64h14.02v5.95h-14.02v5.74h15.55v6.61h-24.58" fill="#1a545c" fill-rule="evenodd"/><path d="m189.15 65.6-1.23 52.61m24.08-52.95 1.03 53.32" fill="none" stroke="#1a545c" stroke-width="8"/><g stroke-width=".432"><path d="m1.24 1.06 3.8 62.12 14.69 2.25-3.15-57.22z" fill="#ffe66e" stroke="#ffe66e"/><path d="m28.66 13.88 3.1 53.59 30.25 4.41-1.12-42.93z" fill="#ffe66e" stroke="#ffe66e"/><path d="m73.11 34.52 2 39.31 30.25 4.41-.67-29.12z" fill="#ffe66e" stroke="#ffe66e"/><path d="m115.7 54.45 1.22 25.4 30.24 4.41-.37-15.2z" fill="#ffe66e" stroke="#ffe66e"/><path d="m133.79 100.01 1 15.61 13.82-6.35-1.05-11.03z" fill="#ffe66e" stroke="#ffe66e"/><path d="m108.45 103.42 1.5 23.96 13.63-6.14-1.36-19.59z" fill="#ffe66e" stroke="#ffe66e"/><path d="m81.79 107.03 1.88 32.84 13.86-6.48-2.2-28.13z" fill="#ffe66e" stroke="#ffe66e"/><path d="m54.76 110.81 2.51 41.63 13.24-6.28-2.2-37.11z" fill="#ffe66e" stroke="#ffe66e"/><path d="m169.36 59.41c12.54-40.92 52.9-40.92 64.28 0z" fill="#ff6b6b" stroke="#ff6b6b"/></g></g></svg>