<?xml version="1.0" encoding="UTF-8" standalone="no"?>
<svg
   xmlns:dc="http://purl.org/dc/elements/1.1/"
   xmlns:cc="http://creativecommons.org/ns#"
   xmlns:rdf="http://www.w3.org/1999/02/22-rdf-syntax-ns#"
   xmlns:svg="http://www.w3.org/2000/svg"
   xmlns="http://www.w3.org/2000/svg"
   xmlns:sodipodi="http://sodipodi.sourceforge.net/DTD/sodipodi-0.dtd"
   xmlns:inkscape="http://www.inkscape.org/namespaces/inkscape"
   viewBox="0 0 275.12415 355.99603"
   width="275.12415"
   height="355.99603"
   version="1.1"
   id="svg29"
   sodipodi:docname="loxper-icon.svg"
   inkscape:version="0.92.3 (2405546, 2018-03-11)">
  <metadata
     id="metadata33">
    <rdf:RDF>
      <cc:Work
         rdf:about="">
        <dc:format>image/svg+xml</dc:format>
        <dc:type
           rdf:resource="http://purl.org/dc/dcmitype/StillImage" />
        <dc:title></dc:title>
      </cc:Work>
    </rdf:RDF>
  </metadata>
  <sodipodi:namedview
     pagecolor="#ffffff"
     bordercolor="#666666"
     borderopacity="1"
     objecttolerance="10"
     gridtolerance="10"
     guidetolerance="10"
     inkscape:pageopacity="0"
     inkscape:pageshadow="2"
     inkscape:window-width="1060"
     inkscape:window-height="726"
     id="namedview31"
     showgrid="false"
     fit-margin-top="10"
     fit-margin-left="10"
     fit-margin-right="10"
     fit-margin-bottom="10"
     inkscape:zoom="0.66588511"
     inkscape:cx="134.46927"
     inkscape:cy="378.70871"
     inkscape:window-x="2766"
     inkscape:window-y="111"
     inkscape:window-maximized="0"
     inkscape:current-layer="Page 1" />
  <defs
     id="defs5">
    <clipPath
       clipPathUnits="userSpaceOnUse"
       id="cp1">
      <path
         d="M 1,1 H 853 V 337 H 1 Z"
         id="path2"
         inkscape:connector-curvature="0" />
    </clipPath>
  </defs>
  <style
     id="style7">
		tspan { white-space:pre }
		.shp0 { fill: #1a545c } 
		.shp1 { fill: none;stroke: #1a545c;stroke-width: 0.432 } 
		.shp2 { fill: #4fccc4;stroke: #4fccc4;stroke-width: 0.432 } 
		.shp3 { fill: #ff6b6b;stroke: #ff6b6b;stroke-width: 0.432 } 
		.shp4 { fill: #1a545c;stroke: #1a545c;stroke-width: 0.432 } 
		.shp5 { fill: none;stroke: #1a545c;stroke-width: 8 } 
		.shp6 { fill: #4fccc4 } 
		.shp7 { fill: #ffe66e;stroke: #ffe66e;stroke-width: 0.432 } 
	</style>
  <g
     id="Page 1"
     clip-path="url(#cp1)"
     transform="translate(8.9977608,9)">
    <path
       id="Path 2"
       class="shp1"
       d="m 152.01,283.22 -1.24,1.04 -0.89,1.8 -4.15,45.58 0.15,2.44 0.08,0.94 0.27,0.73 0.5,0.39 0.91,0.32 2.15,0.32 102.64,-0.24 1.9,-0.19 0.89,-0.6 0.59,-1.29 0.1,-1.76 -0.74,-12.06 -0.24,-1.09 -0.25,-0.88 -0.39,-0.83 -0.44,-0.68 -0.52,-0.41 -0.68,-0.33 -1.66,-0.67 -95.22,-32.58 -1.01,-0.29 -1.26,-0.12 z"
       inkscape:connector-curvature="0"
       style="fill:none;stroke:#1a545c;stroke-width:0.43200001" />
    <g
       id="g4562">
      <path
         d="m 152.01,283.22 -1.24,1.04 -0.89,1.8 -4.15,45.58 0.15,2.44 0.08,0.94 0.27,0.73 0.5,0.39 0.91,0.32 2.15,0.32 102.64,-0.24 1.9,-0.19 0.89,-0.6 0.6,-1.29 0.09,-1.76 -0.74,-12.06 -0.24,-1.09 -0.25,-0.88 -0.39,-0.83 -0.44,-0.68 -0.52,-0.41 -0.68,-0.33 -1.66,-0.67 -95.22,-32.58 -1.01,-0.29 -1.26,-0.12 z"
         class="shp0"
         id="Path 1"
         inkscape:connector-curvature="0"
         style="fill:#1a545c" />
      <path
         d="m 247.92,236.53 -1.45,-0.8 -2.03,-0.79 -84.52,-29.85 -1.28,-0.5 -0.63,-0.31 -0.49,-0.2 -0.39,-0.02 -0.34,0.06 -0.18,1.47 -3.55,40.47 0.11,1.26 0.33,0.99 0.75,0.72 1.11,0.49 57.53,19.73 1.9,0.66 1.12,1.07 0.28,1.24 0.1,0.88 0.1,0.89 0.13,9.67 v 2.58 l 0.6,2.27 1.39,1.04 2.12,1.12 29.82,9.74 1.15,0.31 0.41,0.1 0.46,0.05 0.26,-0.02 0.28,-0.16 0.17,-0.37 0.08,-0.35 0.01,-0.56 -0.12,-1.5 -4.57,-58.7 -0.13,-1.43 z"
         class="shp2"
         id="Path 3"
         inkscape:connector-curvature="0"
         style="fill:#4fccc4;stroke:#4fccc4;stroke-width:0.43200001" />
      <path
         d="m 161.64,146.74 -0.12,0.24 -0.11,0.3 -0.07,0.56 -1.83,24.46 -0.01,0.28 0.01,0.16 0.04,0.12 0.1,0.07 0.15,0.07 0.17,0.07 48.24,17.17 0.94,0.36 0.58,0.26 0.39,0.29 0.24,0.79 0.12,0.87 0.44,11.57 0.08,1.08 0.14,0.55 0.16,0.42 0.23,0.3 0.33,0.19 1.05,0.44 32.17,11.74 1.16,0.25 0.63,-0.01 0.17,-0.03 0.05,-0.15 0.04,-0.25 -0.01,-0.36 -0.1,-1.15 -0.13,-1.63 -5.36,-67.14 -0.17,-0.93 -0.34,-0.65 -1.04,-0.33 -0.98,-0.13 -76.29,-0.06 -0.36,0.01 -0.23,0.05 -0.27,0.05 z"
         class="shp3"
         id="Path 4"
         inkscape:connector-curvature="0"
         style="fill:#ff6b6b;stroke:#ff6b6b;stroke-width:0.43200001" />
      <path
         d="m 154.46,117.47 h 91.67 c 1.99,0 3.62,1.11 3.62,2.46 v 6.84 c 0,1.36 -1.63,2.46 -3.62,2.46 h -91.67 c -2,0 -3.63,-1.1 -3.63,-2.46 v -6.84 c 0,-1.35 1.63,-2.46 3.63,-2.46 z"
         class="shp4"
         id="Path 5"
         inkscape:connector-curvature="0"
         style="fill:#1a545c;stroke:#1a545c;stroke-width:0.43200001" />
      <path
         d="m 249.72,135.01 h -98.91 v -10.84 h 98.91 z"
         class="shp4"
         id="Path 6"
         inkscape:connector-curvature="0"
         style="fill:#1a545c;stroke:#1a545c;stroke-width:0.43200001" />
      <path
         d="m 231.34,118.24 -0.82,-41.81 -0.38,-13.03 -49.8,0.13 -7.64,-0.17 -3.19,55.32"
         class="shp5"
         id="Path 7"
         inkscape:connector-curvature="0"
         style="fill:none;stroke:#1a545c;stroke-width:8" />
      <path
         d="m 189.15,65.6 -1.23,52.61 M 212,65.26 l 1.03,53.32"
         class="shp5"
         id="Path 10"
         inkscape:connector-curvature="0"
         style="fill:none;stroke:#1a545c;stroke-width:8" />
      <path
         d="M 1.24,1.06 5.04,63.18 19.73,65.43 16.58,8.21 Z"
         class="shp7"
         id="Path 11"
         inkscape:connector-curvature="0"
         style="fill:#ffe66e;stroke:#ffe66e;stroke-width:0.43200001" />
      <path
         d="m 28.66,13.88 3.1,53.59 30.25,4.41 -1.12,-42.93 z"
         class="shp7"
         id="Path 12"
         inkscape:connector-curvature="0"
         style="fill:#ffe66e;stroke:#ffe66e;stroke-width:0.43200001" />
      <path
         d="m 73.11,34.52 2,39.31 30.25,4.41 -0.67,-29.12 z"
         class="shp7"
         id="Path 13"
         inkscape:connector-curvature="0"
         style="fill:#ffe66e;stroke:#ffe66e;stroke-width:0.43200001" />
      <path
         d="m 115.7,54.45 1.22,25.4 30.24,4.41 -0.37,-15.2 z"
         class="shp7"
         id="Path 14"
         inkscape:connector-curvature="0"
         style="fill:#ffe66e;stroke:#ffe66e;stroke-width:0.43200001" />
      <path
         d="m 133.79,100.01 1,15.61 13.82,-6.35 -1.05,-11.03 z"
         class="shp7"
         id="Path 15"
         inkscape:connector-curvature="0"
         style="fill:#ffe66e;stroke:#ffe66e;stroke-width:0.43200001" />
      <path
         d="m 108.45,103.42 1.5,23.96 13.63,-6.14 -1.36,-19.59 z"
         class="shp7"
         id="Path 16"
         inkscape:connector-curvature="0"
         style="fill:#ffe66e;stroke:#ffe66e;stroke-width:0.43200001" />
      <path
         d="m 81.79,107.03 1.88,32.84 13.86,-6.48 -2.2,-28.13 z"
         class="shp7"
         id="Path 17"
         inkscape:connector-curvature="0"
         style="fill:#ffe66e;stroke:#ffe66e;stroke-width:0.43200001" />
      <path
         d="m 54.76,110.81 2.51,41.63 13.24,-6.28 -2.2,-37.11 z"
         class="shp7"
         id="Path 18"
         inkscape:connector-curvature="0"
         style="fill:#ffe66e;stroke:#ffe66e;stroke-width:0.43200001" />
      <path
         d="m 169.36,59.41 c 12.54,-40.92 52.9,-40.92 64.28,0 z"
         class="shp3"
         id="Path 19"
         inkscape:connector-curvature="0"
         style="fill:#ff6b6b;stroke:#ff6b6b;stroke-width:0.43200001" />
    </g>
  </g>
</svg>
